<mxfile host="app.diagrams.net" agent="Mozilla/5.0 (Macintosh; Intel Mac OS X 10_15_7) AppleWebKit/537.36 (KHTML, like Gecko) Chrome/129.0.0.0 Safari/537.36" version="24.7.14">
  <diagram id="C5RBs43oDa-KdzZeNtuy" name="Page-1">
    <mxGraphModel dx="1562" dy="961" grid="1" gridSize="10" guides="1" tooltips="1" connect="1" arrows="1" fold="1" page="1" pageScale="1" pageWidth="827" pageHeight="1169" math="0" shadow="0">
      <root>
        <mxCell id="WIyWlLk6GJQsqaUBKTNV-0" />
        <mxCell id="WIyWlLk6GJQsqaUBKTNV-1" parent="WIyWlLk6GJQsqaUBKTNV-0" />
        <mxCell id="BQ2eknXwwD9i8KfaOaq0-26" value="&lt;div style=&quot;box-sizing:border-box;width:100%;background:#e4e4e4;padding:2px;&quot;&gt;&lt;div style=&quot;text-align: center;&quot;&gt;&lt;b&gt;todos&lt;/b&gt;&lt;/div&gt;&lt;table style=&quot;background-color: initial; font-size: 1em; width: 100%;&quot; cellpadding=&quot;2&quot; cellspacing=&quot;0&quot;&gt;&lt;tbody&gt;&lt;tr&gt;&lt;td&gt;PK&lt;/td&gt;&lt;td&gt;char uuid todoID&amp;nbsp;&lt;/td&gt;&lt;/tr&gt;&lt;tr&gt;&lt;td&gt;&lt;br&gt;&lt;/td&gt;&lt;td&gt;char taskName&lt;/td&gt;&lt;/tr&gt;&lt;tr&gt;&lt;td&gt;&lt;/td&gt;&lt;td&gt;boolean ffinish&lt;br&gt;&lt;span style=&quot;font-family: monospace; font-size: medium; background-color: rgb(238, 238, 221);&quot;&gt;timestamptz&lt;/span&gt;&amp;nbsp;createdAt&lt;/td&gt;&lt;/tr&gt;&lt;/tbody&gt;&lt;/table&gt;&lt;/div&gt;" style="verticalAlign=top;align=left;overflow=fill;html=1;whiteSpace=wrap;" vertex="1" parent="WIyWlLk6GJQsqaUBKTNV-1">
          <mxGeometry x="39" y="480" width="180" height="90" as="geometry" />
        </mxCell>
        <mxCell id="BQ2eknXwwD9i8KfaOaq0-28" value="&lt;div style=&quot;box-sizing:border-box;width:100%;background:#e4e4e4;padding:2px;&quot;&gt;&lt;div style=&quot;text-align: center;&quot;&gt;&lt;b&gt;settings&lt;/b&gt;&lt;/div&gt;&lt;table style=&quot;background-color: initial; font-size: 1em; width: 100%;&quot; cellpadding=&quot;2&quot; cellspacing=&quot;0&quot;&gt;&lt;tbody&gt;&lt;tr&gt;&lt;td&gt;PK&lt;/td&gt;&lt;td&gt;char uuid settingID&amp;nbsp;&lt;/td&gt;&lt;/tr&gt;&lt;tr&gt;&lt;td&gt;FK&lt;/td&gt;&lt;td&gt;char todoID&lt;/td&gt;&lt;/tr&gt;&lt;tr&gt;&lt;td&gt;FK&lt;br&gt;&lt;br&gt;&lt;br&gt;&lt;/td&gt;&lt;td&gt;char tagName&lt;br&gt;&lt;span style=&quot;font-family: monospace; font-size: medium; background-color: rgb(238, 238, 221);&quot;&gt;timestamptz&lt;/span&gt;&amp;nbsp;createdAt&lt;br&gt;&lt;span style=&quot;font-family: monospace; font-size: medium; background-color: rgb(238, 238, 221);&quot;&gt;timestamptz&lt;/span&gt;&amp;nbsp;updatedAt&lt;/td&gt;&lt;/tr&gt;&lt;/tbody&gt;&lt;/table&gt;&lt;/div&gt;" style="verticalAlign=top;align=left;overflow=fill;html=1;whiteSpace=wrap;" vertex="1" parent="WIyWlLk6GJQsqaUBKTNV-1">
          <mxGeometry x="309" y="480" width="180" height="100" as="geometry" />
        </mxCell>
        <mxCell id="BQ2eknXwwD9i8KfaOaq0-29" value="&lt;div style=&quot;box-sizing:border-box;width:100%;background:#e4e4e4;padding:2px;&quot;&gt;&lt;div style=&quot;text-align: center;&quot;&gt;&lt;b&gt;tags&lt;/b&gt;&lt;/div&gt;&lt;table style=&quot;background-color: initial; font-size: 1em; width: 100%;&quot; cellpadding=&quot;2&quot; cellspacing=&quot;0&quot;&gt;&lt;tbody&gt;&lt;tr&gt;&lt;td&gt;PK&lt;/td&gt;&lt;td&gt;char uuid tagID&amp;nbsp;&lt;/td&gt;&lt;/tr&gt;&lt;tr&gt;&lt;td&gt;FK&lt;br&gt;&lt;br&gt;&lt;/td&gt;&lt;td&gt;char tagName&lt;br&gt;&lt;span style=&quot;font-family: monospace; font-size: medium; background-color: rgb(238, 238, 221);&quot;&gt;timestamptz&lt;/span&gt;&amp;nbsp; createdAt&lt;/td&gt;&lt;/tr&gt;&lt;tr&gt;&lt;td&gt;&lt;br&gt;&lt;/td&gt;&lt;td&gt;&lt;br&gt;&lt;/td&gt;&lt;/tr&gt;&lt;/tbody&gt;&lt;/table&gt;&lt;/div&gt;" style="verticalAlign=top;align=left;overflow=fill;html=1;whiteSpace=wrap;" vertex="1" parent="WIyWlLk6GJQsqaUBKTNV-1">
          <mxGeometry x="609" y="480" width="180" height="70" as="geometry" />
        </mxCell>
        <mxCell id="BQ2eknXwwD9i8KfaOaq0-30" value="todoID" style="endArrow=block;endFill=1;html=1;edgeStyle=orthogonalEdgeStyle;align=left;verticalAlign=top;rounded=0;exitX=1;exitY=0.25;exitDx=0;exitDy=0;" edge="1" parent="WIyWlLk6GJQsqaUBKTNV-1" source="BQ2eknXwwD9i8KfaOaq0-26">
          <mxGeometry x="-1" relative="1" as="geometry">
            <mxPoint x="239" y="510" as="sourcePoint" />
            <mxPoint x="308" y="530" as="targetPoint" />
            <Array as="points">
              <mxPoint x="264" y="503" />
              <mxPoint x="264" y="525" />
              <mxPoint x="308" y="525" />
            </Array>
          </mxGeometry>
        </mxCell>
        <mxCell id="BQ2eknXwwD9i8KfaOaq0-31" value="1" style="edgeLabel;resizable=0;html=1;align=left;verticalAlign=bottom;" connectable="0" vertex="1" parent="BQ2eknXwwD9i8KfaOaq0-30">
          <mxGeometry x="-1" relative="1" as="geometry" />
        </mxCell>
        <mxCell id="BQ2eknXwwD9i8KfaOaq0-32" value="tagID" style="endArrow=block;endFill=1;html=1;edgeStyle=orthogonalEdgeStyle;align=left;verticalAlign=top;rounded=0;" edge="1" parent="WIyWlLk6GJQsqaUBKTNV-1">
          <mxGeometry x="-0.4902" y="-5" relative="1" as="geometry">
            <mxPoint x="599" y="505" as="sourcePoint" />
            <mxPoint x="490" y="540" as="targetPoint" />
            <Array as="points">
              <mxPoint x="599" y="506" />
              <mxPoint x="544" y="506" />
              <mxPoint x="544" y="540" />
            </Array>
            <mxPoint as="offset" />
          </mxGeometry>
        </mxCell>
        <mxCell id="BQ2eknXwwD9i8KfaOaq0-33" value="1" style="edgeLabel;resizable=0;html=1;align=left;verticalAlign=bottom;" connectable="0" vertex="1" parent="BQ2eknXwwD9i8KfaOaq0-32">
          <mxGeometry x="-1" relative="1" as="geometry" />
        </mxCell>
      </root>
    </mxGraphModel>
  </diagram>
</mxfile>
